# xmcd CD database file
#
# Track frame offsets:
#	150
#	24663
#	42430
#	83468
#	104736
#	126372
#	161493
#
# Disc length: 2660 seconds
#
# Revision: 2
# Processed by: cddbd v1.5.1PL0 Copyright (c) Steve Scherf et al.
# Submitted via: CDex 1.50
#
DISCID=550a6207
DTITLE=Delirious Tremor - Semi Hollow Body
DYEAR=1900
DGENRE=Jazz
TTITLE0=Open Wide and Holding
TTITLE1=Pretty as a Picture
TTITLE2=Semi Hollow Body
TTITLE3=Gettysburg
TTITLE4=Pencil Sketch
TTITLE5=Day After Charlotte
TTITLE6=Last Measure of a Blues
EXTD=
EXTT0=
EXTT1=
EXTT2=
EXTT3=
EXTT4=
EXTT5=
EXTT6=
PLAYORDER=
